<?xml version="1.0" encoding="UTF-8" standalone="no"?>
<!DOCTYPE svg PUBLIC "-//W3C//DTD SVG 1.1//EN"
 "http://www.w3.org/Graphics/SVG/1.1/DTD/svg11.dtd">
<!-- Generated by graphviz version 2.40.1 (20161225.0304)
 -->
<!-- Title: dependencies Pages: 1 -->
<svg width="1937pt" height="284pt"
 viewBox="0.00 0.00 1937.00 284.00" xmlns="http://www.w3.org/2000/svg" xmlns:xlink="http://www.w3.org/1999/xlink">
<g id="graph0" class="graph" transform="scale(1 1) rotate(0) translate(4 280)">
<title>dependencies</title>
<polygon fill="#ffffff" stroke="transparent" points="-4,4 -4,-280 1933,-280 1933,4 -4,4"/>
<text text-anchor="start" x="943.5091" y="-42.4" font-family="sans-serif" font-weight="bold" font-size="14.00" fill="#000000">Legend</text>
<polygon fill="#ffffb3" stroke="transparent" points="730.5,-10 730.5,-30 750.5,-30 750.5,-10 730.5,-10"/>
<text text-anchor="start" x="754.129" y="-15.4" font-family="sans-serif" font-size="14.00" fill="#000000"> &#160;Declarations</text>
<polygon fill="#8dd3c7" stroke="transparent" points="843.5,-10 843.5,-30 863.5,-30 863.5,-10 843.5,-10"/>
<text text-anchor="start" x="867.2251" y="-15.4" font-family="sans-serif" font-size="14.00" fill="#000000"> &#160;Module</text>
<polygon fill="#80b1d3" stroke="transparent" points="929.5,-10 929.5,-30 949.5,-30 949.5,-10 929.5,-10"/>
<text text-anchor="start" x="953.2812" y="-15.4" font-family="sans-serif" font-size="14.00" fill="#000000"> &#160;Bootstrap</text>
<polygon fill="#fdb462" stroke="transparent" points="1026.5,-10 1026.5,-30 1046.5,-30 1046.5,-10 1026.5,-10"/>
<text text-anchor="start" x="1050.1732" y="-15.4" font-family="sans-serif" font-size="14.00" fill="#000000"> &#160;Providers</text>
<polygon fill="#fb8072" stroke="transparent" points="1122.5,-10 1122.5,-30 1142.5,-30 1142.5,-10 1122.5,-10"/>
<text text-anchor="start" x="1146.2258" y="-15.4" font-family="sans-serif" font-size="14.00" fill="#000000"> &#160;Exports</text>
<g id="clust1" class="cluster">
<title>cluster_CoreModule</title>
<polygon fill="none" stroke="#000000" stroke-dasharray="1,5" points="8,-70 8,-268 1921,-268 1921,-70 8,-70"/>
</g>
<g id="clust2" class="cluster">
<title>cluster_CoreModule_declarations</title>
<polygon fill="none" stroke="#000000" points="1364,-78 1364,-130 1913,-130 1913,-78 1364,-78"/>
</g>
<g id="clust7" class="cluster">
<title>cluster_CoreModule_exports</title>
<polygon fill="none" stroke="#000000" points="886,-208 886,-260 1028,-260 1028,-208 886,-208"/>
</g>
<g id="clust9" class="cluster">
<title>cluster_CoreModule_providers</title>
<polygon fill="none" stroke="#000000" points="16,-78 16,-130 1356,-130 1356,-78 16,-78"/>
</g>
<!-- NaoAutorizadoComponent -->
<g id="node1" class="node">
<title>NaoAutorizadoComponent</title>
<polygon fill="#ffffb3" stroke="#000000" points="1904.6316,-122 1737.3684,-122 1737.3684,-86 1904.6316,-86 1904.6316,-122"/>
<text text-anchor="middle" x="1821" y="-99.8" font-family="Times,serif" font-size="14.00" fill="#000000">NaoAutorizadoComponent</text>
</g>
<!-- CoreModule -->
<g id="node4" class="node">
<title>CoreModule</title>
<polygon fill="#8dd3c7" stroke="#000000" points="1000.2619,-187 997.2619,-191 976.2619,-191 973.2619,-187 913.7381,-187 913.7381,-151 1000.2619,-151 1000.2619,-187"/>
<text text-anchor="middle" x="957" y="-164.8" font-family="Times,serif" font-size="14.00" fill="#000000">CoreModule</text>
</g>
<!-- NaoAutorizadoComponent&#45;&gt;CoreModule -->
<g id="edge1" class="edge">
<title>NaoAutorizadoComponent&#45;&gt;CoreModule</title>
<path fill="none" stroke="#000000" d="M1821,-122.2479C1821,-145.0179 1821,-181 1821,-181 1821,-181 1010.438,-181 1010.438,-181"/>
<polygon fill="#000000" stroke="#000000" points="1010.438,-177.5001 1000.438,-181 1010.438,-184.5001 1010.438,-177.5001"/>
</g>
<!-- NavbarComponent -->
<g id="node2" class="node">
<title>NavbarComponent</title>
<polygon fill="#ffffb3" stroke="#000000" points="1719.0297,-122 1596.9703,-122 1596.9703,-86 1719.0297,-86 1719.0297,-122"/>
<text text-anchor="middle" x="1658" y="-99.8" font-family="Times,serif" font-size="14.00" fill="#000000">NavbarComponent</text>
</g>
<!-- NavbarComponent&#45;&gt;CoreModule -->
<g id="edge2" class="edge">
<title>NavbarComponent&#45;&gt;CoreModule</title>
<path fill="none" stroke="#000000" d="M1658,-122.2843C1658,-143.3211 1658,-175 1658,-175 1658,-175 1010.3217,-175 1010.3217,-175"/>
<polygon fill="#000000" stroke="#000000" points="1010.3217,-171.5001 1000.3217,-175 1010.3216,-178.5001 1010.3217,-171.5001"/>
</g>
<!-- PaginaNaoEncontradaComponent -->
<g id="node3" class="node">
<title>PaginaNaoEncontradaComponent</title>
<polygon fill="#ffffb3" stroke="#000000" points="1578.0042,-122 1371.9958,-122 1371.9958,-86 1578.0042,-86 1578.0042,-122"/>
<text text-anchor="middle" x="1475" y="-99.8" font-family="Times,serif" font-size="14.00" fill="#000000">PaginaNaoEncontradaComponent</text>
</g>
<!-- PaginaNaoEncontradaComponent&#45;&gt;CoreModule -->
<g id="edge3" class="edge">
<title>PaginaNaoEncontradaComponent&#45;&gt;CoreModule</title>
<path fill="none" stroke="#000000" d="M1475,-122.1061C1475,-141.3391 1475,-169 1475,-169 1475,-169 1010.2734,-169 1010.2734,-169"/>
<polygon fill="#000000" stroke="#000000" points="1010.2735,-165.5001 1000.2734,-169 1010.2734,-172.5001 1010.2735,-165.5001"/>
</g>
<!-- NavbarComponent  -->
<g id="node5" class="node">
<title>NavbarComponent </title>
<polygon fill="#fb8072" stroke="#000000" points="1020.0288,-252 893.9712,-252 893.9712,-216 1020.0288,-216 1020.0288,-252"/>
<text text-anchor="middle" x="957" y="-229.8" font-family="Times,serif" font-size="14.00" fill="#000000">NavbarComponent </text>
</g>
<!-- CoreModule&#45;&gt;NavbarComponent  -->
<g id="edge4" class="edge">
<title>CoreModule&#45;&gt;NavbarComponent </title>
<path fill="none" stroke="#000000" stroke-dasharray="5,2" d="M957,-187.1061C957,-187.1061 957,-205.991 957,-205.991"/>
<polygon fill="#000000" stroke="#000000" points="953.5001,-205.9909 957,-215.991 960.5001,-205.991 953.5001,-205.9909"/>
</g>
<!-- AuthService -->
<g id="node6" class="node">
<title>AuthService</title>
<ellipse fill="#fdb462" stroke="#000000" cx="1289" cy="-104" rx="59.1083" ry="18"/>
<text text-anchor="middle" x="1289" y="-99.8" font-family="Times,serif" font-size="14.00" fill="#000000">AuthService</text>
</g>
<!-- AuthService&#45;&gt;CoreModule -->
<g id="edge5" class="edge">
<title>AuthService&#45;&gt;CoreModule</title>
<path fill="none" stroke="#000000" d="M1289,-122.0225C1289,-139.3734 1289,-163 1289,-163 1289,-163 1010.4032,-163 1010.4032,-163"/>
<polygon fill="#000000" stroke="#000000" points="1010.4032,-159.5001 1000.4032,-163 1010.4032,-166.5001 1010.4032,-159.5001"/>
</g>
<!-- CategoriaService -->
<g id="node7" class="node">
<title>CategoriaService</title>
<ellipse fill="#fdb462" stroke="#000000" cx="1134" cy="-104" rx="77.5627" ry="18"/>
<text text-anchor="middle" x="1134" y="-99.8" font-family="Times,serif" font-size="14.00" fill="#000000">CategoriaService</text>
</g>
<!-- CategoriaService&#45;&gt;CoreModule -->
<g id="edge6" class="edge">
<title>CategoriaService&#45;&gt;CoreModule</title>
<path fill="none" stroke="#000000" d="M1134,-122.2396C1134,-137.5706 1134,-157 1134,-157 1134,-157 1010.2991,-157 1010.2991,-157"/>
<polygon fill="#000000" stroke="#000000" points="1010.2991,-153.5001 1000.2991,-157 1010.299,-160.5001 1010.2991,-153.5001"/>
</g>
<!-- DashboardService -->
<g id="node8" class="node">
<title>DashboardService</title>
<ellipse fill="#fdb462" stroke="#000000" cx="957" cy="-104" rx="81.6423" ry="18"/>
<text text-anchor="middle" x="957" y="-99.8" font-family="Times,serif" font-size="14.00" fill="#000000">DashboardService</text>
</g>
<!-- DashboardService&#45;&gt;CoreModule -->
<g id="edge7" class="edge">
<title>DashboardService&#45;&gt;CoreModule</title>
<path fill="none" stroke="#000000" d="M957,-122.1061C957,-122.1061 957,-140.991 957,-140.991"/>
<polygon fill="#000000" stroke="#000000" points="953.5001,-140.9909 957,-150.991 960.5001,-140.991 953.5001,-140.9909"/>
</g>
<!-- ErrorHandlerService -->
<g id="node9" class="node">
<title>ErrorHandlerService</title>
<ellipse fill="#fdb462" stroke="#000000" cx="766" cy="-104" rx="91.4288" ry="18"/>
<text text-anchor="middle" x="766" y="-99.8" font-family="Times,serif" font-size="14.00" fill="#000000">ErrorHandlerService</text>
</g>
<!-- ErrorHandlerService&#45;&gt;CoreModule -->
<g id="edge8" class="edge">
<title>ErrorHandlerService&#45;&gt;CoreModule</title>
<path fill="none" stroke="#000000" d="M766,-122.2396C766,-137.5706 766,-157 766,-157 766,-157 903.6591,-157 903.6591,-157"/>
<polygon fill="#000000" stroke="#000000" points="903.6592,-160.5001 913.6591,-157 903.6591,-153.5001 903.6592,-160.5001"/>
</g>
<!-- LancamentoService -->
<g id="node10" class="node">
<title>LancamentoService</title>
<ellipse fill="#fdb462" stroke="#000000" cx="569" cy="-104" rx="87.9394" ry="18"/>
<text text-anchor="middle" x="569" y="-99.8" font-family="Times,serif" font-size="14.00" fill="#000000">LancamentoService</text>
</g>
<!-- LancamentoService&#45;&gt;CoreModule -->
<g id="edge9" class="edge">
<title>LancamentoService&#45;&gt;CoreModule</title>
<path fill="none" stroke="#000000" d="M569,-122.0225C569,-139.3734 569,-163 569,-163 569,-163 903.6209,-163 903.6209,-163"/>
<polygon fill="#000000" stroke="#000000" points="903.6209,-166.5001 913.6209,-163 903.6208,-159.5001 903.6209,-166.5001"/>
</g>
<!-- MoneyHttp -->
<g id="node11" class="node">
<title>MoneyHttp</title>
<ellipse fill="#fdb462" stroke="#000000" cx="408" cy="-104" rx="55.6198" ry="18"/>
<text text-anchor="middle" x="408" y="-99.8" font-family="Times,serif" font-size="14.00" fill="#000000">MoneyHttp</text>
</g>
<!-- MoneyHttp&#45;&gt;CoreModule -->
<g id="edge10" class="edge">
<title>MoneyHttp&#45;&gt;CoreModule</title>
<path fill="none" stroke="#000000" d="M408,-122.1061C408,-141.3391 408,-169 408,-169 408,-169 903.462,-169 903.462,-169"/>
<polygon fill="#000000" stroke="#000000" points="903.462,-172.5001 913.462,-169 903.462,-165.5001 903.462,-172.5001"/>
</g>
<!-- PessoaService -->
<g id="node12" class="node">
<title>PessoaService</title>
<ellipse fill="#fdb462" stroke="#000000" cx="268" cy="-104" rx="66.0473" ry="18"/>
<text text-anchor="middle" x="268" y="-99.8" font-family="Times,serif" font-size="14.00" fill="#000000">PessoaService</text>
</g>
<!-- PessoaService&#45;&gt;CoreModule -->
<g id="edge11" class="edge">
<title>PessoaService&#45;&gt;CoreModule</title>
<path fill="none" stroke="#000000" d="M268,-122.2843C268,-143.3211 268,-175 268,-175 268,-175 903.639,-175 903.639,-175"/>
<polygon fill="#000000" stroke="#000000" points="903.639,-178.5001 913.639,-175 903.6389,-171.5001 903.639,-178.5001"/>
</g>
<!-- RelatoriosService -->
<g id="node13" class="node">
<title>RelatoriosService</title>
<ellipse fill="#fdb462" stroke="#000000" cx="104" cy="-104" rx="79.8682" ry="18"/>
<text text-anchor="middle" x="104" y="-99.8" font-family="Times,serif" font-size="14.00" fill="#000000">RelatoriosService</text>
</g>
<!-- RelatoriosService&#45;&gt;CoreModule -->
<g id="edge12" class="edge">
<title>RelatoriosService&#45;&gt;CoreModule</title>
<path fill="none" stroke="#000000" d="M104,-122.2479C104,-145.0179 104,-181 104,-181 104,-181 903.5269,-181 903.5269,-181"/>
<polygon fill="#000000" stroke="#000000" points="903.5269,-184.5001 913.5269,-181 903.5269,-177.5001 903.5269,-184.5001"/>
</g>
</g>
</svg>
