<?xml version="1.0" encoding="UTF-8" standalone="no"?>
<!DOCTYPE svg PUBLIC "-//W3C//DTD SVG 1.1//EN"
 "http://www.w3.org/Graphics/SVG/1.1/DTD/svg11.dtd">
<!-- Generated by graphviz version 2.40.1 (20161225.0304)
 -->
<!-- Title: dependencies Pages: 1 -->
<svg width="937pt" height="211pt"
 viewBox="0.00 0.00 937.00 211.00" xmlns="http://www.w3.org/2000/svg" xmlns:xlink="http://www.w3.org/1999/xlink">
<g id="graph0" class="graph" transform="scale(1 1) rotate(0) translate(4 207)">
<title>dependencies</title>
<polygon fill="#ffffff" stroke="transparent" points="-4,4 -4,-207 933,-207 933,4 -4,4"/>
<text text-anchor="start" x="443.5091" y="-42.4" font-family="sans-serif" font-weight="bold" font-size="14.00" fill="#000000">Legend</text>
<polygon fill="#ffffb3" stroke="transparent" points="230.5,-10 230.5,-30 250.5,-30 250.5,-10 230.5,-10"/>
<text text-anchor="start" x="254.129" y="-15.4" font-family="sans-serif" font-size="14.00" fill="#000000"> &#160;Declarations</text>
<polygon fill="#8dd3c7" stroke="transparent" points="343.5,-10 343.5,-30 363.5,-30 363.5,-10 343.5,-10"/>
<text text-anchor="start" x="367.2251" y="-15.4" font-family="sans-serif" font-size="14.00" fill="#000000"> &#160;Module</text>
<polygon fill="#80b1d3" stroke="transparent" points="429.5,-10 429.5,-30 449.5,-30 449.5,-10 429.5,-10"/>
<text text-anchor="start" x="453.2812" y="-15.4" font-family="sans-serif" font-size="14.00" fill="#000000"> &#160;Bootstrap</text>
<polygon fill="#fdb462" stroke="transparent" points="526.5,-10 526.5,-30 546.5,-30 546.5,-10 526.5,-10"/>
<text text-anchor="start" x="550.1732" y="-15.4" font-family="sans-serif" font-size="14.00" fill="#000000"> &#160;Providers</text>
<polygon fill="#fb8072" stroke="transparent" points="622.5,-10 622.5,-30 642.5,-30 642.5,-10 622.5,-10"/>
<text text-anchor="start" x="646.2258" y="-15.4" font-family="sans-serif" font-size="14.00" fill="#000000"> &#160;Exports</text>
<g id="clust1" class="cluster">
<title>cluster_PessoasModule</title>
<polygon fill="none" stroke="#000000" stroke-dasharray="1,5" points="8,-70 8,-195 921,-195 921,-70 8,-70"/>
</g>
<g id="clust2" class="cluster">
<title>cluster_PessoasModule_declarations</title>
<polygon fill="none" stroke="#000000" points="304,-78 304,-130 913,-130 913,-78 304,-78"/>
</g>
<g id="clust6" class="cluster">
<title>cluster_PessoasModule_imports</title>
<polygon fill="none" stroke="#000000" points="16,-78 16,-130 296,-130 296,-78 16,-78"/>
</g>
<!-- PessoaCadastroComponent -->
<g id="node1" class="node">
<title>PessoaCadastroComponent</title>
<polygon fill="#ffffb3" stroke="#000000" points="904.6951,-122 735.3049,-122 735.3049,-86 904.6951,-86 904.6951,-122"/>
<text text-anchor="middle" x="820" y="-99.8" font-family="Times,serif" font-size="14.00" fill="#000000">PessoaCadastroComponent</text>
</g>
<!-- PessoasModule -->
<g id="node4" class="node">
<title>PessoasModule</title>
<polygon fill="#8dd3c7" stroke="#000000" points="450.5954,-187 447.5954,-191 426.5954,-191 423.5954,-187 347.4046,-187 347.4046,-151 450.5954,-151 450.5954,-187"/>
<text text-anchor="middle" x="399" y="-164.8" font-family="Times,serif" font-size="14.00" fill="#000000">PessoasModule</text>
</g>
<!-- PessoaCadastroComponent&#45;&gt;PessoasModule -->
<g id="edge1" class="edge">
<title>PessoaCadastroComponent&#45;&gt;PessoasModule</title>
<path fill="none" stroke="#000000" d="M820,-122.2843C820,-143.3211 820,-175 820,-175 820,-175 460.6229,-175 460.6229,-175"/>
<polygon fill="#000000" stroke="#000000" points="460.6229,-171.5001 450.6229,-175 460.6228,-178.5001 460.6229,-171.5001"/>
</g>
<!-- PessoaCadastroContatoComponent -->
<g id="node2" class="node">
<title>PessoaCadastroContatoComponent</title>
<polygon fill="#ffffb3" stroke="#000000" points="717.5279,-122 504.4721,-122 504.4721,-86 717.5279,-86 717.5279,-122"/>
<text text-anchor="middle" x="611" y="-99.8" font-family="Times,serif" font-size="14.00" fill="#000000">PessoaCadastroContatoComponent</text>
</g>
<!-- PessoaCadastroContatoComponent&#45;&gt;PessoasModule -->
<g id="edge2" class="edge">
<title>PessoaCadastroContatoComponent&#45;&gt;PessoasModule</title>
<path fill="none" stroke="#000000" d="M611,-122.0225C611,-139.3734 611,-163 611,-163 611,-163 460.5899,-163 460.5899,-163"/>
<polygon fill="#000000" stroke="#000000" points="460.59,-159.5001 450.5899,-163 460.5899,-166.5001 460.59,-159.5001"/>
</g>
<!-- PessoasPesquisaComponent -->
<g id="node3" class="node">
<title>PessoasPesquisaComponent</title>
<polygon fill="#ffffb3" stroke="#000000" points="485.8696,-122 312.1304,-122 312.1304,-86 485.8696,-86 485.8696,-122"/>
<text text-anchor="middle" x="399" y="-99.8" font-family="Times,serif" font-size="14.00" fill="#000000">PessoasPesquisaComponent</text>
</g>
<!-- PessoasPesquisaComponent&#45;&gt;PessoasModule -->
<g id="edge3" class="edge">
<title>PessoasPesquisaComponent&#45;&gt;PessoasModule</title>
<path fill="none" stroke="#000000" d="M399,-122.1061C399,-122.1061 399,-140.991 399,-140.991"/>
<polygon fill="#000000" stroke="#000000" points="395.5001,-140.9909 399,-150.991 402.5001,-140.991 395.5001,-140.9909"/>
</g>
<!-- PessoasRoutingModule -->
<g id="node5" class="node">
<title>PessoasRoutingModule</title>
<polygon fill="#8dd3c7" stroke="#000000" points="288.2134,-122 285.2134,-126 264.2134,-126 261.2134,-122 139.7866,-122 139.7866,-86 288.2134,-86 288.2134,-122"/>
<text text-anchor="middle" x="214" y="-99.8" font-family="Times,serif" font-size="14.00" fill="#000000">PessoasRoutingModule</text>
</g>
<!-- PessoasRoutingModule&#45;&gt;PessoasModule -->
<g id="edge4" class="edge">
<title>PessoasRoutingModule&#45;&gt;PessoasModule</title>
<path fill="none" stroke="#000000" d="M214,-122.0225C214,-139.3734 214,-163 214,-163 214,-163 336.9749,-163 336.9749,-163"/>
<polygon fill="#000000" stroke="#000000" points="336.9749,-166.5001 346.9749,-163 336.9748,-159.5001 336.9749,-166.5001"/>
</g>
<!-- SharedModule -->
<g id="node6" class="node">
<title>SharedModule</title>
<polygon fill="#8dd3c7" stroke="#000000" points="122.4231,-122 119.4231,-126 98.4231,-126 95.4231,-122 23.5769,-122 23.5769,-86 122.4231,-86 122.4231,-122"/>
<text text-anchor="middle" x="73" y="-99.8" font-family="Times,serif" font-size="14.00" fill="#000000">SharedModule</text>
</g>
<!-- SharedModule&#45;&gt;PessoasModule -->
<g id="edge5" class="edge">
<title>SharedModule&#45;&gt;PessoasModule</title>
<path fill="none" stroke="#000000" d="M73,-122.2843C73,-143.3211 73,-175 73,-175 73,-175 337.3443,-175 337.3443,-175"/>
<polygon fill="#000000" stroke="#000000" points="337.3444,-178.5001 347.3443,-175 337.3443,-171.5001 337.3444,-178.5001"/>
</g>
</g>
</svg>
