<?xml version="1.0" encoding="UTF-8" standalone="no"?>
<!DOCTYPE svg PUBLIC "-//W3C//DTD SVG 1.1//EN"
 "http://www.w3.org/Graphics/SVG/1.1/DTD/svg11.dtd">
<!-- Generated by graphviz version 2.40.1 (20161225.0304)
 -->
<!-- Title: dependencies Pages: 1 -->
<svg width="799pt" height="211pt"
 viewBox="0.00 0.00 799.00 211.00" xmlns="http://www.w3.org/2000/svg" xmlns:xlink="http://www.w3.org/1999/xlink">
<g id="graph0" class="graph" transform="scale(1 1) rotate(0) translate(4 207)">
<title>dependencies</title>
<polygon fill="#ffffff" stroke="transparent" points="-4,4 -4,-207 795,-207 795,4 -4,4"/>
<text text-anchor="start" x="374.5091" y="-42.4" font-family="sans-serif" font-weight="bold" font-size="14.00" fill="#000000">Legend</text>
<polygon fill="#ffffb3" stroke="transparent" points="161.5,-10 161.5,-30 181.5,-30 181.5,-10 161.5,-10"/>
<text text-anchor="start" x="185.129" y="-15.4" font-family="sans-serif" font-size="14.00" fill="#000000"> &#160;Declarations</text>
<polygon fill="#8dd3c7" stroke="transparent" points="274.5,-10 274.5,-30 294.5,-30 294.5,-10 274.5,-10"/>
<text text-anchor="start" x="298.2251" y="-15.4" font-family="sans-serif" font-size="14.00" fill="#000000"> &#160;Module</text>
<polygon fill="#80b1d3" stroke="transparent" points="360.5,-10 360.5,-30 380.5,-30 380.5,-10 360.5,-10"/>
<text text-anchor="start" x="384.2812" y="-15.4" font-family="sans-serif" font-size="14.00" fill="#000000"> &#160;Bootstrap</text>
<polygon fill="#fdb462" stroke="transparent" points="457.5,-10 457.5,-30 477.5,-30 477.5,-10 457.5,-10"/>
<text text-anchor="start" x="481.1732" y="-15.4" font-family="sans-serif" font-size="14.00" fill="#000000"> &#160;Providers</text>
<polygon fill="#fb8072" stroke="transparent" points="553.5,-10 553.5,-30 573.5,-30 573.5,-10 553.5,-10"/>
<text text-anchor="start" x="577.2258" y="-15.4" font-family="sans-serif" font-size="14.00" fill="#000000"> &#160;Exports</text>
<g id="clust1" class="cluster">
<title>cluster_LancamentosModule</title>
<polygon fill="none" stroke="#000000" stroke-dasharray="1,5" points="8,-70 8,-195 783,-195 783,-70 8,-70"/>
</g>
<g id="clust2" class="cluster">
<title>cluster_LancamentosModule_declarations</title>
<polygon fill="none" stroke="#000000" points="336,-78 336,-130 775,-130 775,-78 336,-78"/>
</g>
<g id="clust5" class="cluster">
<title>cluster_LancamentosModule_imports</title>
<polygon fill="none" stroke="#000000" points="16,-78 16,-130 328,-130 328,-78 16,-78"/>
</g>
<!-- LancamentoCadastroComponent -->
<g id="node1" class="node">
<title>LancamentoCadastroComponent</title>
<polygon fill="#ffffb3" stroke="#000000" points="767.2864,-122 566.7136,-122 566.7136,-86 767.2864,-86 767.2864,-122"/>
<text text-anchor="middle" x="667" y="-99.8" font-family="Times,serif" font-size="14.00" fill="#000000">LancamentoCadastroComponent</text>
</g>
<!-- LancamentosModule -->
<g id="node3" class="node">
<title>LancamentosModule</title>
<polygon fill="#8dd3c7" stroke="#000000" points="405.1867,-187 402.1867,-191 381.1867,-191 378.1867,-187 270.8133,-187 270.8133,-151 405.1867,-151 405.1867,-187"/>
<text text-anchor="middle" x="338" y="-164.8" font-family="Times,serif" font-size="14.00" fill="#000000">LancamentosModule</text>
</g>
<!-- LancamentoCadastroComponent&#45;&gt;LancamentosModule -->
<g id="edge1" class="edge">
<title>LancamentoCadastroComponent&#45;&gt;LancamentosModule</title>
<path fill="none" stroke="#000000" d="M667,-122.1061C667,-141.3391 667,-169 667,-169 667,-169 415.372,-169 415.372,-169"/>
<polygon fill="#000000" stroke="#000000" points="415.372,-165.5001 405.372,-169 415.3719,-172.5001 415.372,-165.5001"/>
</g>
<!-- LancamentosPesquisaComponent -->
<g id="node2" class="node">
<title>LancamentosPesquisaComponent</title>
<polygon fill="#ffffb3" stroke="#000000" points="548.4608,-122 343.5392,-122 343.5392,-86 548.4608,-86 548.4608,-122"/>
<text text-anchor="middle" x="446" y="-99.8" font-family="Times,serif" font-size="14.00" fill="#000000">LancamentosPesquisaComponent</text>
</g>
<!-- LancamentosPesquisaComponent&#45;&gt;LancamentosModule -->
<g id="edge2" class="edge">
<title>LancamentosPesquisaComponent&#45;&gt;LancamentosModule</title>
<path fill="none" stroke="#000000" d="M374.3065,-122.1061C374.3065,-122.1061 374.3065,-140.991 374.3065,-140.991"/>
<polygon fill="#000000" stroke="#000000" points="370.8065,-140.9909 374.3065,-150.991 377.8065,-140.991 370.8065,-140.9909"/>
</g>
<!-- LancamentosRoutingModule -->
<g id="node4" class="node">
<title>LancamentosRoutingModule</title>
<polygon fill="#8dd3c7" stroke="#000000" points="319.8047,-122 316.8047,-126 295.8047,-126 292.8047,-122 140.1953,-122 140.1953,-86 319.8047,-86 319.8047,-122"/>
<text text-anchor="middle" x="230" y="-99.8" font-family="Times,serif" font-size="14.00" fill="#000000">LancamentosRoutingModule</text>
</g>
<!-- LancamentosRoutingModule&#45;&gt;LancamentosModule -->
<g id="edge3" class="edge">
<title>LancamentosRoutingModule&#45;&gt;LancamentosModule</title>
<path fill="none" stroke="#000000" d="M295.2795,-122.1061C295.2795,-122.1061 295.2795,-140.991 295.2795,-140.991"/>
<polygon fill="#000000" stroke="#000000" points="291.7795,-140.9909 295.2795,-150.991 298.7795,-140.991 291.7795,-140.9909"/>
</g>
<!-- SharedModule -->
<g id="node5" class="node">
<title>SharedModule</title>
<polygon fill="#8dd3c7" stroke="#000000" points="122.4231,-122 119.4231,-126 98.4231,-126 95.4231,-122 23.5769,-122 23.5769,-86 122.4231,-86 122.4231,-122"/>
<text text-anchor="middle" x="73" y="-99.8" font-family="Times,serif" font-size="14.00" fill="#000000">SharedModule</text>
</g>
<!-- SharedModule&#45;&gt;LancamentosModule -->
<g id="edge4" class="edge">
<title>SharedModule&#45;&gt;LancamentosModule</title>
<path fill="none" stroke="#000000" d="M73,-122.1061C73,-141.3391 73,-169 73,-169 73,-169 260.7867,-169 260.7867,-169"/>
<polygon fill="#000000" stroke="#000000" points="260.7868,-172.5001 270.7867,-169 260.7867,-165.5001 260.7868,-172.5001"/>
</g>
</g>
</svg>
