<?xml version="1.0" encoding="UTF-8" standalone="no"?>
<!DOCTYPE svg PUBLIC "-//W3C//DTD SVG 1.1//EN"
 "http://www.w3.org/Graphics/SVG/1.1/DTD/svg11.dtd">
<!-- Generated by graphviz version 2.40.1 (20161225.0304)
 -->
<!-- Title: dependencies Pages: 1 -->
<svg width="566pt" height="211pt"
 viewBox="0.00 0.00 566.00 211.00" xmlns="http://www.w3.org/2000/svg" xmlns:xlink="http://www.w3.org/1999/xlink">
<g id="graph0" class="graph" transform="scale(1 1) rotate(0) translate(4 207)">
<title>dependencies</title>
<polygon fill="#ffffff" stroke="transparent" points="-4,4 -4,-207 562,-207 562,4 -4,4"/>
<text text-anchor="start" x="258.0091" y="-42.4" font-family="sans-serif" font-weight="bold" font-size="14.00" fill="#000000">Legend</text>
<polygon fill="#ffffb3" stroke="transparent" points="45,-10 45,-30 65,-30 65,-10 45,-10"/>
<text text-anchor="start" x="68.629" y="-15.4" font-family="sans-serif" font-size="14.00" fill="#000000"> &#160;Declarations</text>
<polygon fill="#8dd3c7" stroke="transparent" points="158,-10 158,-30 178,-30 178,-10 158,-10"/>
<text text-anchor="start" x="181.7251" y="-15.4" font-family="sans-serif" font-size="14.00" fill="#000000"> &#160;Module</text>
<polygon fill="#80b1d3" stroke="transparent" points="244,-10 244,-30 264,-30 264,-10 244,-10"/>
<text text-anchor="start" x="267.7812" y="-15.4" font-family="sans-serif" font-size="14.00" fill="#000000"> &#160;Bootstrap</text>
<polygon fill="#fdb462" stroke="transparent" points="341,-10 341,-30 361,-30 361,-10 341,-10"/>
<text text-anchor="start" x="364.6732" y="-15.4" font-family="sans-serif" font-size="14.00" fill="#000000"> &#160;Providers</text>
<polygon fill="#fb8072" stroke="transparent" points="437,-10 437,-30 457,-30 457,-10 437,-10"/>
<text text-anchor="start" x="460.7258" y="-15.4" font-family="sans-serif" font-size="14.00" fill="#000000"> &#160;Exports</text>
<g id="clust1" class="cluster">
<title>cluster_RelatoriosModule</title>
<polygon fill="none" stroke="#000000" stroke-dasharray="1,5" points="8,-70 8,-195 550,-195 550,-70 8,-70"/>
</g>
<g id="clust2" class="cluster">
<title>cluster_RelatoriosModule_declarations</title>
<polygon fill="none" stroke="#000000" points="318,-78 318,-130 542,-130 542,-78 318,-78"/>
</g>
<g id="clust4" class="cluster">
<title>cluster_RelatoriosModule_imports</title>
<polygon fill="none" stroke="#000000" points="16,-78 16,-130 310,-130 310,-78 16,-78"/>
</g>
<!-- RelatorioLancamentosComponent -->
<g id="node1" class="node">
<title>RelatorioLancamentosComponent</title>
<polygon fill="#ffffb3" stroke="#000000" points="534.0674,-122 325.9326,-122 325.9326,-86 534.0674,-86 534.0674,-122"/>
<text text-anchor="middle" x="430" y="-99.8" font-family="Times,serif" font-size="14.00" fill="#000000">RelatorioLancamentosComponent</text>
</g>
<!-- RelatoriosModule -->
<g id="node2" class="node">
<title>RelatoriosModule</title>
<polygon fill="#8dd3c7" stroke="#000000" points="279.5926,-187 276.5926,-191 255.5926,-191 252.5926,-187 162.4074,-187 162.4074,-151 279.5926,-151 279.5926,-187"/>
<text text-anchor="middle" x="221" y="-164.8" font-family="Times,serif" font-size="14.00" fill="#000000">RelatoriosModule</text>
</g>
<!-- RelatorioLancamentosComponent&#45;&gt;RelatoriosModule -->
<g id="edge1" class="edge">
<title>RelatorioLancamentosComponent&#45;&gt;RelatoriosModule</title>
<path fill="none" stroke="#000000" d="M430,-122.1061C430,-141.3391 430,-169 430,-169 430,-169 289.7743,-169 289.7743,-169"/>
<polygon fill="#000000" stroke="#000000" points="289.7744,-165.5001 279.7743,-169 289.7743,-172.5001 289.7744,-165.5001"/>
</g>
<!-- RelatoriosRoutingModule -->
<g id="node3" class="node">
<title>RelatoriosRoutingModule</title>
<polygon fill="#8dd3c7" stroke="#000000" points="302.2105,-122 299.2105,-126 278.2105,-126 275.2105,-122 139.7895,-122 139.7895,-86 302.2105,-86 302.2105,-122"/>
<text text-anchor="middle" x="221" y="-99.8" font-family="Times,serif" font-size="14.00" fill="#000000">RelatoriosRoutingModule</text>
</g>
<!-- RelatoriosRoutingModule&#45;&gt;RelatoriosModule -->
<g id="edge2" class="edge">
<title>RelatoriosRoutingModule&#45;&gt;RelatoriosModule</title>
<path fill="none" stroke="#000000" d="M221,-122.1061C221,-122.1061 221,-140.991 221,-140.991"/>
<polygon fill="#000000" stroke="#000000" points="217.5001,-140.9909 221,-150.991 224.5001,-140.991 217.5001,-140.9909"/>
</g>
<!-- SharedModule -->
<g id="node4" class="node">
<title>SharedModule</title>
<polygon fill="#8dd3c7" stroke="#000000" points="122.4231,-122 119.4231,-126 98.4231,-126 95.4231,-122 23.5769,-122 23.5769,-86 122.4231,-86 122.4231,-122"/>
<text text-anchor="middle" x="73" y="-99.8" font-family="Times,serif" font-size="14.00" fill="#000000">SharedModule</text>
</g>
<!-- SharedModule&#45;&gt;RelatoriosModule -->
<g id="edge3" class="edge">
<title>SharedModule&#45;&gt;RelatoriosModule</title>
<path fill="none" stroke="#000000" d="M73,-122.1061C73,-141.3391 73,-169 73,-169 73,-169 152.0812,-169 152.0812,-169"/>
<polygon fill="#000000" stroke="#000000" points="152.0813,-172.5001 162.0812,-169 152.0812,-165.5001 152.0813,-172.5001"/>
</g>
</g>
</svg>
