<?xml version="1.0" encoding="UTF-8" standalone="no"?>
<!DOCTYPE svg PUBLIC "-//W3C//DTD SVG 1.1//EN"
 "http://www.w3.org/Graphics/SVG/1.1/DTD/svg11.dtd">
<!-- Generated by graphviz version 2.40.1 (20161225.0304)
 -->
<!-- Title: dependencies Pages: 1 -->
<svg width="548pt" height="211pt"
 viewBox="0.00 0.00 548.00 211.00" xmlns="http://www.w3.org/2000/svg" xmlns:xlink="http://www.w3.org/1999/xlink">
<g id="graph0" class="graph" transform="scale(1 1) rotate(0) translate(4 207)">
<title>dependencies</title>
<polygon fill="#ffffff" stroke="transparent" points="-4,4 -4,-207 544,-207 544,4 -4,4"/>
<text text-anchor="start" x="249.0091" y="-42.4" font-family="sans-serif" font-weight="bold" font-size="14.00" fill="#000000">Legend</text>
<polygon fill="#ffffb3" stroke="transparent" points="36,-10 36,-30 56,-30 56,-10 36,-10"/>
<text text-anchor="start" x="59.629" y="-15.4" font-family="sans-serif" font-size="14.00" fill="#000000"> &#160;Declarations</text>
<polygon fill="#8dd3c7" stroke="transparent" points="149,-10 149,-30 169,-30 169,-10 149,-10"/>
<text text-anchor="start" x="172.7251" y="-15.4" font-family="sans-serif" font-size="14.00" fill="#000000"> &#160;Module</text>
<polygon fill="#80b1d3" stroke="transparent" points="235,-10 235,-30 255,-30 255,-10 235,-10"/>
<text text-anchor="start" x="258.7812" y="-15.4" font-family="sans-serif" font-size="14.00" fill="#000000"> &#160;Bootstrap</text>
<polygon fill="#fdb462" stroke="transparent" points="332,-10 332,-30 352,-30 352,-10 332,-10"/>
<text text-anchor="start" x="355.6732" y="-15.4" font-family="sans-serif" font-size="14.00" fill="#000000"> &#160;Providers</text>
<polygon fill="#fb8072" stroke="transparent" points="428,-10 428,-30 448,-30 448,-10 428,-10"/>
<text text-anchor="start" x="451.7258" y="-15.4" font-family="sans-serif" font-size="14.00" fill="#000000"> &#160;Exports</text>
<g id="clust1" class="cluster">
<title>cluster_SegurancaModule</title>
<polygon fill="none" stroke="#000000" stroke-dasharray="1,5" points="8,-70 8,-195 532,-195 532,-70 8,-70"/>
</g>
<g id="clust2" class="cluster">
<title>cluster_SegurancaModule_declarations</title>
<polygon fill="none" stroke="#000000" points="362,-78 362,-130 524,-130 524,-78 362,-78"/>
</g>
<g id="clust4" class="cluster">
<title>cluster_SegurancaModule_imports</title>
<polygon fill="none" stroke="#000000" points="176,-78 176,-130 354,-130 354,-78 176,-78"/>
</g>
<g id="clust7" class="cluster">
<title>cluster_SegurancaModule_providers</title>
<polygon fill="none" stroke="#000000" points="16,-78 16,-130 168,-130 168,-78 16,-78"/>
</g>
<!-- LoginFormComponent -->
<g id="node1" class="node">
<title>LoginFormComponent</title>
<polygon fill="#ffffb3" stroke="#000000" points="515.6094,-122 370.3906,-122 370.3906,-86 515.6094,-86 515.6094,-122"/>
<text text-anchor="middle" x="443" y="-99.8" font-family="Times,serif" font-size="14.00" fill="#000000">LoginFormComponent</text>
</g>
<!-- SegurancaModule -->
<g id="node2" class="node">
<title>SegurancaModule</title>
<polygon fill="#8dd3c7" stroke="#000000" points="323.8515,-187 320.8515,-191 299.8515,-191 296.8515,-187 206.1485,-187 206.1485,-151 323.8515,-151 323.8515,-187"/>
<text text-anchor="middle" x="265" y="-164.8" font-family="Times,serif" font-size="14.00" fill="#000000">SegurancaModule</text>
</g>
<!-- LoginFormComponent&#45;&gt;SegurancaModule -->
<g id="edge1" class="edge">
<title>LoginFormComponent&#45;&gt;SegurancaModule</title>
<path fill="none" stroke="#000000" d="M443,-122.1061C443,-141.3391 443,-169 443,-169 443,-169 334.2714,-169 334.2714,-169"/>
<polygon fill="#000000" stroke="#000000" points="334.2715,-165.5001 324.2714,-169 334.2714,-172.5001 334.2715,-165.5001"/>
</g>
<!-- SegurancaRoutingModule -->
<g id="node3" class="node">
<title>SegurancaRoutingModule</title>
<polygon fill="#8dd3c7" stroke="#000000" points="346.4692,-122 343.4692,-126 322.4692,-126 319.4692,-122 183.5308,-122 183.5308,-86 346.4692,-86 346.4692,-122"/>
<text text-anchor="middle" x="265" y="-99.8" font-family="Times,serif" font-size="14.00" fill="#000000">SegurancaRoutingModule</text>
</g>
<!-- SegurancaRoutingModule&#45;&gt;SegurancaModule -->
<g id="edge2" class="edge">
<title>SegurancaRoutingModule&#45;&gt;SegurancaModule</title>
<path fill="none" stroke="#000000" d="M265,-122.1061C265,-122.1061 265,-140.991 265,-140.991"/>
<polygon fill="#000000" stroke="#000000" points="261.5001,-140.9909 265,-150.991 268.5001,-140.991 261.5001,-140.9909"/>
</g>
<!-- LogoutService -->
<g id="node4" class="node">
<title>LogoutService</title>
<ellipse fill="#fdb462" stroke="#000000" cx="92" cy="-104" rx="67.7779" ry="18"/>
<text text-anchor="middle" x="92" y="-99.8" font-family="Times,serif" font-size="14.00" fill="#000000">LogoutService</text>
</g>
<!-- LogoutService&#45;&gt;SegurancaModule -->
<g id="edge3" class="edge">
<title>LogoutService&#45;&gt;SegurancaModule</title>
<path fill="none" stroke="#000000" d="M92,-122.1061C92,-141.3391 92,-169 92,-169 92,-169 195.9471,-169 195.9471,-169"/>
<polygon fill="#000000" stroke="#000000" points="195.9471,-172.5001 205.9471,-169 195.947,-165.5001 195.9471,-172.5001"/>
</g>
</g>
</svg>
