<?xml version="1.0" encoding="iso-8859-1"?>
<!-- Generator: Adobe Illustrator 19.0.0, SVG Export Plug-In . SVG Version: 6.00 Build 0)  -->
<svg version="1.1" id="Capa_1" xmlns="http://www.w3.org/2000/svg" xmlns:xlink="http://www.w3.org/1999/xlink" x="0px" y="0px"
	 viewBox="0 0 481.787 481.787" style="enable-background:new 0 0 481.787 481.787;" xml:space="preserve">
<path style="fill:#79DCA0;" d="M476.797,273.27c-14.336-17.83-39.002-7.575-57.751,2.906c-24.049,13.463-48.113,26.91-72.177,40.373
	c8.493-52.826,84.841-79.887,83.848-131.735c-0.286-14.773-9.321-30.012-23.537-34.018c-15.059-4.232-35.825,2.68-51.064,35.057
	c-9.623,20.465-15.074,42.888-15.917,65.476c-0.527,14.366-1.988,31.849-17.032,32.422c-3.117-167.063-1.416-171.43-9.532-187.663
	c-6.144-12.303-19.848-21.986-33.25-18.899c-15.059,3.479-33.973,25.992-8.222,66.967c7.032,11.189,15.224,21.805,20.104,34.093
	c9.698,24.425,5.135,51.908,0.422,77.779l-10.827,59.377c-0.994,5.451-2.078,11.128-5.376,15.586
	c-6.505,8.824-18.101,8.689-22.106-6.445c-5.015-18.944-1.656-39.032,2.635-58.157c3.765-16.836,24.636-84.917-20.329-106.315
	c-17.694-8.433-43.234,0.617-46.923,19.863c-3.795,19.742,14.261,35.9,25.736,52.405c14.833,21.353,19.712,49.318,12.996,74.436
	c-36.668-3.93-54.814-41.592-67.659-69.617c-61.907-135.138,34.65-119.462,58.895-147.426c8.689-10.029,10.797-25.48,4.518-37.18
	s-20.826-18.507-33.687-15.209c-28.883,7.379-31.624,51.953-58.654,64.512c-14.155,6.581-32.512,1.34-41.728-11.249
	c-9.246-12.649-9.201-29.515-10.993-45.086c-1.807-15.616-7.62-33.084-22.212-38.807c-16.685-6.536-43.43,5.466-45.207,42.451
	c-2.997,62.509,53.338,77.809,77.402,105.246c35.102,40.011,25.133,109.116,66.56,142.517c4.774,3.84,10.722,8.493,9.653,14.517
	c-1.205,6.776-9.547,11.249-24.29,2.319c-22.287-13.508-42.978-29.651-61.47-48.008c-15.059-14.938-37.15-38.972-61.892-27.919
	c-22.965,10.255-28.552,52.134,13.432,73.457c17.167,8.719,31.112,10.376,101.075,23.718c28.04,5.346,33.22,26.458-1.476,39.273
	c-16.791,6.189-33.687,13.312-46.863,25.404s-22.136,30.163-19.049,47.782c5.195,29.711,45.975,45.658,64.919,4.141
	c5.21-11.4,7.424-23.913,11.565-35.75c15.812-45.131,52.239-55.853,75.174-45.448c19.441,8.824,28.898,32.316,27.256,53.594
	c-1.4,18.131-9.336,34.906-18.598,50.688h57.013c1.626-25.208,3.855-50.568,12.408-74.27c9.412-26.037,27.648-50.236,53.474-60.235
	c38.054-14.743,88.2,3.885,120.44-24.275C480.547,305.375,486.827,285.738,476.797,273.27z"/>
<g>
</g>
<g>
</g>
<g>
</g>
<g>
</g>
<g>
</g>
<g>
</g>
<g>
</g>
<g>
</g>
<g>
</g>
<g>
</g>
<g>
</g>
<g>
</g>
<g>
</g>
<g>
</g>
<g>
</g>
</svg>
